/* XPM */
static char *magick[] = {
/* columns rows colors chars-per-pixel */
"48 48 47 1",
"  c ",
". c ",
"X c ",
"o c ",
"O c ",
"+ c ",
"@ c ",
"# c ",
"$ c ",
"% c ",
"& c ",
"* c ",
"= c ",
"- c ",
"; c ",
": c ",
"> c ",
", c ",
"< c ",
"1 c ",
"2 c ",
"3 c ",
"4 c ",
"5 c ",
"6 c ",
"7 c ",
"8 c ",
"9 c ",
"0 c ",
"q c ",
"w c ",
"e c ",
"r c ",
"t c ",
"y c ",
"u c ",
"i c ",
"p c ",
"a c ",
"s c ",
"d c ",
"f c ",
"g c ",
"h c ",
"j c ",
"k c ",
"l c ",
/* pixels */
"gggdllllllsllllllshhhhhhagggggg:;;;;;;;;;;;;;;;;",
"gggdllllllfllllllshhhhhhagggggg:;;;;;;;;;;;;;;;;",
"gggdlllllldllllllshhhhhhagggggg:;;;;;;;;;;;;;;;;",
"gggdlllllldllllllahhhhhhagggggg:;;;;;;;;;;;;;;;;",
"appuddddsduddddsdussssasysaapaa:;;;;;;;;;;;;;;;;",
"llldllhlllfllllllshhhhhhsgggggg:;;;;;;;;;;;;;;;;",
"llldhllllldllllllshhhhhhsgggggg:;;;;;;;;;;;;;;;;",
"llldlllllldllllllshhhhhhaghgggg:;;;;;;;;;;;;;;;;",
"llhdlhlllldllllhlshhhhhhagggggg:;;;;;;;;;;;;;;;;",
"llldlllllhdllly2yshhhhhhsgggggg:;;;;;;;;;;;;;;;;",
"llldlllllldlll&2-ahhhhhhagggggg:;;;;;;;;;;;;;;;;",
"ddduddddddudf&+@X%sssassiasaaas:;;;;;;;;;;;;;;;;",
"dggdlllhllshp O9$ phhhhhpffffffpgdddgdpgfffffshl",
"gggdllllllsh6 7j4.6hhhhhpffffffpddgdddpdfffffshj",
"gggdllhlllahj.iktohhhhhhpffffffpdgdgddadddfffshl",
"gggdlllllldhh&5p8=hhhhhhpffffffpdgdddgpdggdffsjh",
"ggddllllllsjhew0rqhhhhhhudddddgsdgdddgpdddgdddhh",
"gggdllllllshhhhhhdhhhhhhadddgddpdddgddadgdgdddhh",
"dpapsdddddussssddyssasssyppupppuppppapyppppppuda",
"lllsgdggggshhhhhhdlllllhdllllllshhhhhhshhhhhgdll",
"lllpggggggshhhhhhdlllllldhlllhlshhhhhhshhhhhhdll",
"lllpggggggshhhhhhdlllhlldllllllshhhhhhshhhhhhdhl",
"lllpggggggshhhhhhdlllllldllllllahhhhhhshhhhhhdhl",
"lllaggggggshhhhhhdllllhldlhllllshhhhhhshhhhhhdhl",
"lllpdgggggshhhhhhdlllllldllllllajhhhhhshhhhjhdll",
"dddydaaaaausssssdudddddduddddddussssssusssssapdd",
";;;;;;;;;;#,,,,,,,,,,,,,,,,,,,,,,,,,,,,,,,1ggfll",
";;;;;;;;;;#,,,,,,,,,,,,,,,,,,,,,,,,,,,,,,,1ggdll",
";;;;;;;;;;#,,,,,,,,,,,,,,,,,,,,,,,,,,,,,,,1ggdll",
";;;;;;;;;;#,,,,,,,,,,,,,,,,,,,,,,,,,,,,,,,1ggfll",
";;;;;;;;;;#,,,,,,,,,,,,,,,,,,,,,,,,,,,,,,,1ggfll",
";;;;;;;;;;#,,,,,,,,,,,,,,,,,,,,,,,,,,,,,,,1ggdll",
";;;;;;;;;;#,,,,,,,,,,,,,,,,,,,,,,,,,,,,,,,<aaudd",
"dgdpffgffgaggggggshhhhhhaggggggaggggggdlllllldll",
"fffafffgffsggggggshhhhhhaggggggaggggggdlllllldll",
"fffaffffffsggggggahhhhhhaggggggagggggddllllllfll",
"fgfaffffffaggggggshhhhhhaggggggaggggggdlllllldll",
"fffpffffffaggggggshhhhhhaggggggaggggggdlllllldll",
"fffpffffffaggggggshhhhhhaggggggaggggggdlllllkdll",
"apaiapappsiaaasiaussssssyaaapaayaaaapapddsdddpdf",
"gggdllllklaggggggshhhhhhsffffffpdggddddlllllludd",
"gggdllllllpggggggshhhhhhpfffgffpdddddddlllllludg",
"gggdllllllpggggggshhhhhhpffffffpgdgdgddllllllpdg",
"gggdllllllsggggggshhhhhhsffgfffpgdddgddlllllladd",
"gggdllllllaggggggshhhhhhpffffffpdddgdgdllllllpdd",
"gggdllllllaggggggshhhhhjpffffffsdgdddddllhlllugd",
"aaapdddddduaaspasussssssyppppppypdspppusdddddypp",
"fffdllllllpffffffpfgffffdlljlllpdddddddlllllldhh"
};
